<mxfile host="app.diagrams.net" modified="2021-04-20T13:17:36.938Z" agent="5.0 (Windows NT 10.0; Win64; x64) AppleWebKit/537.36 (KHTML, like Gecko) Chrome/89.0.4389.128 Safari/537.36" etag="-D_wfCGtMQ3mOJVRVRSn" version="14.6.3" type="github">
  <diagram id="Jb4tWgrzJc02DxzkDzMU" name="Page-1">
    <mxGraphModel dx="777" dy="477" grid="1" gridSize="10" guides="1" tooltips="1" connect="1" arrows="1" fold="1" page="1" pageScale="1" pageWidth="850" pageHeight="1100" math="0" shadow="0">
      <root>
        <mxCell id="0" />
        <mxCell id="1" parent="0" />
        <mxCell id="0YruNQi02WBuuohvrThf-3" value="" style="rounded=0;whiteSpace=wrap;html=1;fillColor=#fad9d5;strokeColor=none;" parent="1" vertex="1">
          <mxGeometry x="441" y="340" width="80" height="100" as="geometry" />
        </mxCell>
        <mxCell id="0YruNQi02WBuuohvrThf-2" value="" style="rounded=0;whiteSpace=wrap;html=1;fillColor=#fad9d5;strokeColor=none;" parent="1" vertex="1">
          <mxGeometry x="321" y="340" width="80" height="100" as="geometry" />
        </mxCell>
        <mxCell id="0YruNQi02WBuuohvrThf-1" value="" style="rounded=0;whiteSpace=wrap;html=1;fillColor=#fad9d5;strokeColor=none;" parent="1" vertex="1">
          <mxGeometry x="191" y="340" width="80" height="100" as="geometry" />
        </mxCell>
        <mxCell id="fjoyJNUoLHEGhLqI_5-S-1" value="" style="rounded=0;whiteSpace=wrap;html=1;fillColor=#fff2cc;strokeColor=none;" parent="1" vertex="1">
          <mxGeometry x="300" y="180" width="120" height="80" as="geometry" />
        </mxCell>
        <mxCell id="fjoyJNUoLHEGhLqI_5-S-2" value="" style="ellipse;whiteSpace=wrap;html=1;aspect=fixed;fillColor=#a20025;fontColor=#ffffff;strokeColor=none;" parent="1" vertex="1">
          <mxGeometry x="310" y="200" width="20" height="20" as="geometry" />
        </mxCell>
        <mxCell id="fjoyJNUoLHEGhLqI_5-S-3" value="" style="ellipse;whiteSpace=wrap;html=1;aspect=fixed;fillColor=#a20025;fontColor=#ffffff;strokeColor=none;" parent="1" vertex="1">
          <mxGeometry x="390" y="220" width="20" height="20" as="geometry" />
        </mxCell>
        <mxCell id="fjoyJNUoLHEGhLqI_5-S-4" value="" style="ellipse;whiteSpace=wrap;html=1;aspect=fixed;fillColor=#a20025;fontColor=#ffffff;strokeColor=none;" parent="1" vertex="1">
          <mxGeometry x="340" y="240" width="20" height="20" as="geometry" />
        </mxCell>
        <mxCell id="fjoyJNUoLHEGhLqI_5-S-6" value="" style="ellipse;whiteSpace=wrap;html=1;aspect=fixed;fillColor=#a20025;fontColor=#ffffff;strokeColor=none;" parent="1" vertex="1">
          <mxGeometry x="350" y="190" width="20" height="20" as="geometry" />
        </mxCell>
        <mxCell id="fjoyJNUoLHEGhLqI_5-S-7" value="" style="endArrow=none;html=1;exitX=1;exitY=0.5;exitDx=0;exitDy=0;entryX=0;entryY=0.5;entryDx=0;entryDy=0;" parent="1" source="fjoyJNUoLHEGhLqI_5-S-2" target="fjoyJNUoLHEGhLqI_5-S-6" edge="1">
          <mxGeometry width="50" height="50" relative="1" as="geometry">
            <mxPoint x="410" y="560" as="sourcePoint" />
            <mxPoint x="460" y="510" as="targetPoint" />
          </mxGeometry>
        </mxCell>
        <mxCell id="fjoyJNUoLHEGhLqI_5-S-8" value="" style="endArrow=none;html=1;exitX=1;exitY=0.5;exitDx=0;exitDy=0;entryX=0.5;entryY=0;entryDx=0;entryDy=0;" parent="1" source="fjoyJNUoLHEGhLqI_5-S-6" target="fjoyJNUoLHEGhLqI_5-S-3" edge="1">
          <mxGeometry width="50" height="50" relative="1" as="geometry">
            <mxPoint x="390" y="430" as="sourcePoint" />
            <mxPoint x="440" y="380" as="targetPoint" />
          </mxGeometry>
        </mxCell>
        <mxCell id="fjoyJNUoLHEGhLqI_5-S-9" value="" style="endArrow=none;html=1;exitX=0.5;exitY=1;exitDx=0;exitDy=0;entryX=0;entryY=0.5;entryDx=0;entryDy=0;" parent="1" source="fjoyJNUoLHEGhLqI_5-S-2" target="fjoyJNUoLHEGhLqI_5-S-4" edge="1">
          <mxGeometry width="50" height="50" relative="1" as="geometry">
            <mxPoint x="390" y="430" as="sourcePoint" />
            <mxPoint x="440" y="380" as="targetPoint" />
          </mxGeometry>
        </mxCell>
        <mxCell id="fjoyJNUoLHEGhLqI_5-S-10" value="" style="endArrow=none;html=1;exitX=0.5;exitY=1;exitDx=0;exitDy=0;entryX=0.5;entryY=0;entryDx=0;entryDy=0;" parent="1" source="fjoyJNUoLHEGhLqI_5-S-6" target="fjoyJNUoLHEGhLqI_5-S-4" edge="1">
          <mxGeometry width="50" height="50" relative="1" as="geometry">
            <mxPoint x="390" y="430" as="sourcePoint" />
            <mxPoint x="440" y="380" as="targetPoint" />
          </mxGeometry>
        </mxCell>
        <mxCell id="fjoyJNUoLHEGhLqI_5-S-11" value="" style="endArrow=none;html=1;exitX=1;exitY=0.5;exitDx=0;exitDy=0;entryX=0.5;entryY=1;entryDx=0;entryDy=0;" parent="1" source="fjoyJNUoLHEGhLqI_5-S-4" target="fjoyJNUoLHEGhLqI_5-S-3" edge="1">
          <mxGeometry width="50" height="50" relative="1" as="geometry">
            <mxPoint x="390" y="430" as="sourcePoint" />
            <mxPoint x="440" y="380" as="targetPoint" />
          </mxGeometry>
        </mxCell>
        <mxCell id="fjoyJNUoLHEGhLqI_5-S-13" value="" style="endArrow=none;html=1;entryX=0;entryY=0.5;entryDx=0;entryDy=0;exitX=1;exitY=1;exitDx=0;exitDy=0;" parent="1" source="fjoyJNUoLHEGhLqI_5-S-2" target="fjoyJNUoLHEGhLqI_5-S-3" edge="1">
          <mxGeometry width="50" height="50" relative="1" as="geometry">
            <mxPoint x="390" y="220" as="sourcePoint" />
            <mxPoint x="440" y="170" as="targetPoint" />
          </mxGeometry>
        </mxCell>
        <mxCell id="fjoyJNUoLHEGhLqI_5-S-14" value="&lt;font style=&quot;font-size: 10px&quot;&gt;Controller Farm&lt;/font&gt;" style="text;html=1;strokeColor=none;fillColor=none;align=center;verticalAlign=middle;whiteSpace=wrap;rounded=0;" parent="1" vertex="1">
          <mxGeometry x="300" y="160" width="90" height="20" as="geometry" />
        </mxCell>
        <mxCell id="fjoyJNUoLHEGhLqI_5-S-15" value="&lt;font style=&quot;font-size: 8px&quot;&gt;Falken Agent&lt;/font&gt;" style="rounded=0;whiteSpace=wrap;html=1;fillColor=#d80073;fontColor=#ffffff;strokeColor=none;" parent="1" vertex="1">
          <mxGeometry x="196" y="350" width="70" height="30" as="geometry" />
        </mxCell>
        <mxCell id="fjoyJNUoLHEGhLqI_5-S-17" value="&lt;font style=&quot;font-size: 8px&quot;&gt;service-A&lt;/font&gt;" style="rounded=0;whiteSpace=wrap;html=1;fillColor=#e1d5e7;strokeColor=none;" parent="1" vertex="1">
          <mxGeometry x="196" y="400" width="70" height="30" as="geometry" />
        </mxCell>
        <mxCell id="fjoyJNUoLHEGhLqI_5-S-18" value="" style="rounded=0;whiteSpace=wrap;html=1;fillColor=#d80073;fontColor=#ffffff;strokeColor=none;" parent="1" vertex="1">
          <mxGeometry x="246" y="400" width="20" height="10" as="geometry" />
        </mxCell>
        <mxCell id="fjoyJNUoLHEGhLqI_5-S-19" value="" style="endArrow=none;html=1;exitX=0.75;exitY=0;exitDx=0;exitDy=0;entryX=0.5;entryY=1;entryDx=0;entryDy=0;" parent="1" source="fjoyJNUoLHEGhLqI_5-S-17" target="fjoyJNUoLHEGhLqI_5-S-15" edge="1">
          <mxGeometry width="50" height="50" relative="1" as="geometry">
            <mxPoint x="416" y="350" as="sourcePoint" />
            <mxPoint x="466" y="300" as="targetPoint" />
          </mxGeometry>
        </mxCell>
        <mxCell id="fjoyJNUoLHEGhLqI_5-S-20" value="&lt;font style=&quot;font-size: 8px&quot;&gt;Falken Agent&lt;/font&gt;" style="rounded=0;whiteSpace=wrap;html=1;fillColor=#d80073;fontColor=#ffffff;strokeColor=none;" parent="1" vertex="1">
          <mxGeometry x="326" y="350" width="70" height="30" as="geometry" />
        </mxCell>
        <mxCell id="fjoyJNUoLHEGhLqI_5-S-21" value="&lt;font style=&quot;font-size: 8px&quot;&gt;service-A&lt;/font&gt;" style="rounded=0;whiteSpace=wrap;html=1;fillColor=#e1d5e7;strokeColor=none;" parent="1" vertex="1">
          <mxGeometry x="326" y="400" width="70" height="30" as="geometry" />
        </mxCell>
        <mxCell id="fjoyJNUoLHEGhLqI_5-S-22" value="" style="rounded=0;whiteSpace=wrap;html=1;fillColor=#d80073;fontColor=#ffffff;strokeColor=none;" parent="1" vertex="1">
          <mxGeometry x="376" y="400" width="20" height="10" as="geometry" />
        </mxCell>
        <mxCell id="fjoyJNUoLHEGhLqI_5-S-23" value="" style="endArrow=none;html=1;exitX=0.75;exitY=0;exitDx=0;exitDy=0;entryX=0.5;entryY=1;entryDx=0;entryDy=0;" parent="1" source="fjoyJNUoLHEGhLqI_5-S-21" target="fjoyJNUoLHEGhLqI_5-S-20" edge="1">
          <mxGeometry width="50" height="50" relative="1" as="geometry">
            <mxPoint x="546" y="350" as="sourcePoint" />
            <mxPoint x="596" y="300" as="targetPoint" />
          </mxGeometry>
        </mxCell>
        <mxCell id="fjoyJNUoLHEGhLqI_5-S-24" value="&lt;font style=&quot;font-size: 8px&quot;&gt;Falken Agent&lt;/font&gt;" style="rounded=0;whiteSpace=wrap;html=1;fillColor=#d80073;fontColor=#ffffff;strokeColor=none;" parent="1" vertex="1">
          <mxGeometry x="446" y="350" width="70" height="30" as="geometry" />
        </mxCell>
        <mxCell id="fjoyJNUoLHEGhLqI_5-S-25" value="&lt;font style=&quot;font-size: 8px&quot;&gt;service-A&lt;/font&gt;" style="rounded=0;whiteSpace=wrap;html=1;fillColor=#e1d5e7;strokeColor=none;" parent="1" vertex="1">
          <mxGeometry x="446" y="400" width="70" height="30" as="geometry" />
        </mxCell>
        <mxCell id="fjoyJNUoLHEGhLqI_5-S-26" value="" style="rounded=0;whiteSpace=wrap;html=1;fillColor=#d80073;fontColor=#ffffff;strokeColor=none;" parent="1" vertex="1">
          <mxGeometry x="496" y="400" width="20" height="10" as="geometry" />
        </mxCell>
        <mxCell id="fjoyJNUoLHEGhLqI_5-S-27" value="" style="endArrow=none;html=1;exitX=0.75;exitY=0;exitDx=0;exitDy=0;entryX=0.5;entryY=1;entryDx=0;entryDy=0;" parent="1" source="fjoyJNUoLHEGhLqI_5-S-25" target="fjoyJNUoLHEGhLqI_5-S-24" edge="1">
          <mxGeometry width="50" height="50" relative="1" as="geometry">
            <mxPoint x="666" y="350" as="sourcePoint" />
            <mxPoint x="716" y="300" as="targetPoint" />
          </mxGeometry>
        </mxCell>
        <mxCell id="fjoyJNUoLHEGhLqI_5-S-34" value="" style="endArrow=none;html=1;entryX=0.5;entryY=1;entryDx=0;entryDy=0;exitX=0.5;exitY=0;exitDx=0;exitDy=0;" parent="1" source="fjoyJNUoLHEGhLqI_5-S-15" target="fjoyJNUoLHEGhLqI_5-S-1" edge="1">
          <mxGeometry width="50" height="50" relative="1" as="geometry">
            <mxPoint x="380" y="370" as="sourcePoint" />
            <mxPoint x="430" y="320" as="targetPoint" />
          </mxGeometry>
        </mxCell>
        <mxCell id="fjoyJNUoLHEGhLqI_5-S-35" value="" style="endArrow=none;html=1;entryX=0.5;entryY=1;entryDx=0;entryDy=0;exitX=0.5;exitY=0;exitDx=0;exitDy=0;" parent="1" source="fjoyJNUoLHEGhLqI_5-S-20" target="fjoyJNUoLHEGhLqI_5-S-1" edge="1">
          <mxGeometry width="50" height="50" relative="1" as="geometry">
            <mxPoint x="215" y="360" as="sourcePoint" />
            <mxPoint x="370" y="270" as="targetPoint" />
          </mxGeometry>
        </mxCell>
        <mxCell id="fjoyJNUoLHEGhLqI_5-S-36" value="" style="endArrow=none;html=1;exitX=0.5;exitY=0;exitDx=0;exitDy=0;" parent="1" source="fjoyJNUoLHEGhLqI_5-S-24" edge="1">
          <mxGeometry width="50" height="50" relative="1" as="geometry">
            <mxPoint x="225" y="370" as="sourcePoint" />
            <mxPoint x="360" y="260" as="targetPoint" />
          </mxGeometry>
        </mxCell>
        <mxCell id="ZJ2-HURrRAyqdu6JioB--2" value="" style="curved=1;endArrow=classic;html=1;exitX=1;exitY=0.5;exitDx=0;exitDy=0;entryX=0.75;entryY=1;entryDx=0;entryDy=0;dashed=1;strokeColor=#008A00;" edge="1" parent="1" source="fjoyJNUoLHEGhLqI_5-S-18" target="fjoyJNUoLHEGhLqI_5-S-1">
          <mxGeometry width="50" height="50" relative="1" as="geometry">
            <mxPoint x="280" y="330" as="sourcePoint" />
            <mxPoint x="330" y="280" as="targetPoint" />
            <Array as="points">
              <mxPoint x="320" y="360" />
              <mxPoint x="350" y="310" />
            </Array>
          </mxGeometry>
        </mxCell>
        <mxCell id="ZJ2-HURrRAyqdu6JioB--3" value="&lt;font style=&quot;font-size: 7px&quot; color=&quot;#ff0000&quot;&gt;1&lt;/font&gt;" style="ellipse;whiteSpace=wrap;html=1;aspect=fixed;fillColor=#008A00;strokeColor=none;" vertex="1" parent="1">
          <mxGeometry x="370" y="290" width="11" height="11" as="geometry" />
        </mxCell>
        <mxCell id="ZJ2-HURrRAyqdu6JioB--5" value="" style="curved=1;endArrow=classic;html=1;exitX=0.25;exitY=1;exitDx=0;exitDy=0;dashed=1;strokeColor=#008A00;entryX=0.5;entryY=1;entryDx=0;entryDy=0;" edge="1" parent="1" source="fjoyJNUoLHEGhLqI_5-S-1" target="fjoyJNUoLHEGhLqI_5-S-18">
          <mxGeometry width="50" height="50" relative="1" as="geometry">
            <mxPoint x="70" y="310" as="sourcePoint" />
            <mxPoint x="134" y="165" as="targetPoint" />
            <Array as="points">
              <mxPoint x="320" y="330" />
              <mxPoint x="290" y="520" />
            </Array>
          </mxGeometry>
        </mxCell>
        <mxCell id="ZJ2-HURrRAyqdu6JioB--6" value="&lt;font style=&quot;font-size: 7px&quot; color=&quot;#ff0000&quot;&gt;2&lt;/font&gt;" style="ellipse;whiteSpace=wrap;html=1;aspect=fixed;fillColor=#008A00;strokeColor=none;" vertex="1" parent="1">
          <mxGeometry x="280" y="450" width="11" height="11" as="geometry" />
        </mxCell>
        <mxCell id="ZJ2-HURrRAyqdu6JioB--9" value="&lt;font style=&quot;font-size: 4px&quot;&gt;service-registry&lt;/font&gt;" style="rounded=0;whiteSpace=wrap;html=1;strokeColor=#008A00;fillColor=#008A00;" vertex="1" parent="1">
          <mxGeometry x="196" y="370" width="30" height="10" as="geometry" />
        </mxCell>
        <mxCell id="ZJ2-HURrRAyqdu6JioB--13" value="&lt;font style=&quot;font-size: 4px&quot;&gt;service-registry&lt;/font&gt;" style="rounded=0;whiteSpace=wrap;html=1;strokeColor=#008A00;fillColor=#008A00;" vertex="1" parent="1">
          <mxGeometry x="326" y="370" width="30" height="10" as="geometry" />
        </mxCell>
        <mxCell id="ZJ2-HURrRAyqdu6JioB--14" value="&lt;font style=&quot;font-size: 4px&quot;&gt;service-registry&lt;/font&gt;" style="rounded=0;whiteSpace=wrap;html=1;strokeColor=#008A00;fillColor=#008A00;" vertex="1" parent="1">
          <mxGeometry x="446" y="370" width="30" height="10" as="geometry" />
        </mxCell>
        <mxCell id="ZJ2-HURrRAyqdu6JioB--15" value="" style="curved=1;endArrow=classic;html=1;dashed=1;strokeColor=#008A00;exitX=0;exitY=0.5;exitDx=0;exitDy=0;entryX=0.5;entryY=1;entryDx=0;entryDy=0;" edge="1" parent="1" source="fjoyJNUoLHEGhLqI_5-S-18" target="ZJ2-HURrRAyqdu6JioB--9">
          <mxGeometry width="50" height="50" relative="1" as="geometry">
            <mxPoint x="30" y="240" as="sourcePoint" />
            <mxPoint x="30" y="360" as="targetPoint" />
            <Array as="points">
              <mxPoint x="220" y="405" />
              <mxPoint x="220" y="390" />
            </Array>
          </mxGeometry>
        </mxCell>
        <mxCell id="ZJ2-HURrRAyqdu6JioB--16" value="&lt;font style=&quot;font-size: 7px&quot; color=&quot;#ff0000&quot;&gt;3&lt;/font&gt;" style="ellipse;whiteSpace=wrap;html=1;aspect=fixed;fillColor=#008A00;strokeColor=none;" vertex="1" parent="1">
          <mxGeometry x="205.5" y="389" width="11" height="11" as="geometry" />
        </mxCell>
        <mxCell id="ZJ2-HURrRAyqdu6JioB--19" value="" style="curved=1;endArrow=classic;html=1;dashed=1;strokeColor=#008A00;exitX=0.75;exitY=1;exitDx=0;exitDy=0;entryX=0.75;entryY=0;entryDx=0;entryDy=0;" edge="1" parent="1" source="fjoyJNUoLHEGhLqI_5-S-15" target="fjoyJNUoLHEGhLqI_5-S-18">
          <mxGeometry width="50" height="50" relative="1" as="geometry">
            <mxPoint x="105" y="402.5" as="sourcePoint" />
            <mxPoint x="70" y="377.5" as="targetPoint" />
            <Array as="points">
              <mxPoint x="261" y="388" />
            </Array>
          </mxGeometry>
        </mxCell>
        <mxCell id="ZJ2-HURrRAyqdu6JioB--20" value="&lt;font style=&quot;font-size: 7px&quot; color=&quot;#ff0000&quot;&gt;4&lt;/font&gt;" style="ellipse;whiteSpace=wrap;html=1;aspect=fixed;fillColor=#008A00;strokeColor=none;" vertex="1" parent="1">
          <mxGeometry x="246" y="384.5" width="11" height="11" as="geometry" />
        </mxCell>
      </root>
    </mxGraphModel>
  </diagram>
</mxfile>
